<svg width="100" height="100" viewBox="0 0 100 100" fill="none" xmlns="http://www.w3.org/2000/svg">
<rect width="100" height="100" rx="12" fill="#FA9049"/>
<path d="M30.616 27.4H36.26V64.528C36.26 68.1547 35.444 70.92 33.812 72.824C32.2253 74.728 29.8 75.68 26.536 75.68C26.1733 75.68 25.72 75.6573 25.176 75.612C24.632 75.5667 24.088 75.4987 23.544 75.408C23 75.3173 22.4787 75.204 21.98 75.068C21.436 74.932 21.0053 74.7733 20.688 74.592L21.776 69.764C23.0453 70.3533 24.428 70.648 25.924 70.648C27.828 70.648 29.0747 69.9907 29.664 68.676C30.2987 67.316 30.616 65.48 30.616 63.168V27.4ZM45.3731 69.9L69.3771 35.152L72.2331 32.432H45.3731V27.4H77.3331V32.5L53.1931 67.452L50.3371 69.968H77.3331V75H45.3731V69.9Z" fill="black"/>
</svg>
