<svg width="512" height="512" viewBox="0 0 512 512" fill="none" xmlns="http://www.w3.org/2000/svg">
<g clip-path="url(#clip0_4_11)">
<path d="M202 26L30.5 224L239.5 478.5L477 274.5L202 26Z" fill="#202020"/>
<g clip-path="url(#clip1_4_11)">
<path d="M298.98 75.92L307.99 243C308.23 247.43 304.83 251.22 300.39 251.45L73.22 263.97C69.21 264.2 65.77 261.13 65.54 257.12L55.65 84.27C55.42 80.26 58.49 76.82 62.5 76.59L290.98 63.51C294.99 63.28 298.43 66.35 298.66 70.36L298.98 75.91" fill="url(#paint0_linear_4_11)"/>
<path d="M298.98 75.92L307.99 243C308.23 247.43 304.83 251.22 300.39 251.45L73.22 263.97C69.21 264.2 65.77 261.13 65.54 257.12L55.65 84.27C55.42 80.26 58.49 76.82 62.5 76.59L290.98 63.51C294.99 63.28 298.43 66.35 298.66 70.36L298.98 75.91" stroke="black" stroke-miterlimit="10"/>
<path d="M55.97 89.82L298.98 75.92" stroke="black" stroke-miterlimit="10"/>
<path d="M67.86 82.39C67.77 80.74 66.36 79.49 64.71 79.58C63.06 79.67 61.81 81.08 61.9 82.73C61.99 84.38 63.4 85.63 65.05 85.54C66.7 85.45 67.95 84.04 67.86 82.39Z" stroke="black" stroke-miterlimit="10"/>
<path d="M77.39 81.85C77.3 80.2 75.89 78.95 74.24 79.04C72.59 79.13 71.34 80.54 71.43 82.19C71.52 83.84 72.93 85.09 74.58 85C76.23 84.91 77.48 83.5 77.39 81.85Z" stroke="black" stroke-miterlimit="10"/>
<path d="M86.93 81.3C86.84 79.65 85.43 78.4 83.78 78.49C82.13 78.58 80.88 79.99 80.97 81.64C81.06 83.29 82.47 84.54 84.12 84.45C85.77 84.36 87.02 82.95 86.93 81.3Z" stroke="black" stroke-miterlimit="10"/>
<path d="M169.39 134.72C169.19 136.89 170.82 139.54 172.28 140.67C174.78 142.62 178.68 137.63 178.68 137.63C178.68 137.63 180.09 130.68 173.41 131.5C170.62 131.84 169.53 133.16 169.39 134.72Z" stroke="black" stroke-miterlimit="10"/>
<path d="M169.39 134.72C161.92 137.23 161.31 134.11 154.36 132.7C147.41 131.29 142.96 131.84 134.33 135.15C125.7 138.47 118.75 137.06 105.4 138.69C92.05 140.33 86.15 165.89 86.15 165.89L88.06 181.47L82.48 191.19C82.48 191.19 86.34 204.27 93.29 205.67C100.24 207.08 99.69 202.63 99.69 202.63C96.65 196.23 92.2 196.77 92.2 196.77L104.19 184.01C104.19 184.01 103.6 197.63 108.6 201.54L121.95 199.9C121.95 199.9 126.13 197.13 123.63 195.18C121.13 193.23 116.68 193.77 116.68 193.77C116.68 193.77 113.36 185.14 115.32 182.64C115.32 182.64 124.49 183.77 133.12 180.46L135.3 198.26C135.3 198.26 146.97 201.35 153.37 198.3C159.77 195.26 150.05 189.67 148.1 192.17C148.1 192.17 145.33 187.99 147.01 183.27C148.69 178.55 150.1 171.6 150.1 171.6C151.19 180.5 168.67 194.17 168.67 194.17C168.67 194.17 177.84 195.3 182.02 192.53C185.76 190.05 177.02 188.63 177.02 188.63C177.02 188.63 172.02 184.73 169.25 180.55C166.48 176.37 162.89 165.52 164.84 163.02C166.14 161.353 169.197 161.73 174.01 164.15C181.23 167.78 187.63 164.74 191.81 161.97C195.99 159.2 191.26 157.52 188.77 155.57C186.27 153.62 187.95 148.89 187.68 146.67C187.41 144.44 178.91 136.65 178.91 136.65" stroke="black" stroke-miterlimit="10"/>
<path d="M169.39 134.72C169.39 134.72 169.39 134.72 169.4 134.72" stroke="black" stroke-miterlimit="10"/>
<path d="M160.42 371.03L354.95 427.39L438.26 138.17L244.42 82.34L160.42 371.03Z" fill="url(#paint1_linear_4_11)" stroke="black" stroke-miterlimit="10"/>
<path d="M406.42 209.03L332.37 187.64" stroke="black" stroke-miterlimit="10"/>
<path d="M313.42 254.03L385.99 275.28" stroke="black" stroke-miterlimit="10"/>
<path d="M401.42 226.03L328.05 204.45" stroke="black" stroke-miterlimit="10"/>
<path d="M330.45 196.11L403.42 217.03" stroke="black" stroke-miterlimit="10"/>
<path d="M318.45 237.78L391.42 259.03" stroke="black" stroke-miterlimit="10"/>
<path d="M320.85 229.44L393.42 250.03" stroke="black" stroke-miterlimit="10"/>
<path d="M388.39 266.95L316.05 246.11" stroke="black" stroke-miterlimit="10"/>
<path d="M396.42 242.03L323.25 221.11" stroke="black" stroke-miterlimit="10"/>
<path d="M325.65 212.78L398.42 234.03" stroke="black" stroke-miterlimit="10"/>
<path d="M282.42 299.03L207.2 277.09" stroke="black" stroke-miterlimit="10"/>
<path d="M187.42 344.03L263.38 365.47" stroke="black" stroke-miterlimit="10"/>
<path d="M277.78 315.47L202.42 294.03" stroke="black" stroke-miterlimit="10"/>
<path d="M204.8 285.43L280.18 307.14" stroke="black" stroke-miterlimit="10"/>
<path d="M193.42 327.03L268.18 348.81" stroke="black" stroke-miterlimit="10"/>
<path d="M270.58 340.47L195.42 319.03" stroke="black" stroke-miterlimit="10"/>
<path d="M265.78 357.14L190.42 335.03" stroke="black" stroke-miterlimit="10"/>
<path d="M272.98 332.14L198.42 311.03" stroke="black" stroke-miterlimit="10"/>
<path d="M200.42 303.03L275.38 323.81" stroke="black" stroke-miterlimit="10"/>
<path d="M383.62 283.49L219.02 236.07" stroke="black" stroke-miterlimit="10"/>
<path d="M378.82 300.15L214.21 252.74" stroke="black" stroke-miterlimit="10"/>
<path d="M216.61 244.4L381.22 291.82" stroke="black" stroke-miterlimit="10"/>
<path d="M209.41 269.4L374.02 316.82" stroke="black" stroke-miterlimit="10"/>
<path d="M211.81 261.07L376.42 308.49" stroke="black" stroke-miterlimit="10"/>
<path d="M249.86 236.07L219.33 227.27L226.72 201.62" stroke="black" stroke-miterlimit="10"/>
<path d="M226.72 201.62L238.53 160.61L301.32 178.7" stroke="black" stroke-miterlimit="10"/>
<path d="M249.86 236.07L269.93 229.16L258.19 224.89L282.74 213.15L269.93 208.88L284.57 199.37" stroke="black" stroke-miterlimit="10"/>
<path d="M284.57 199.37L291.28 195.01L280.61 192.87L301.32 178.7" stroke="black" stroke-miterlimit="10"/>
<path d="M275.59 216.57C247.42 200.02 226.72 201.61 226.72 201.61" stroke="black" stroke-miterlimit="10"/>
<path d="M284.57 199.37C284.57 199.37 297.42 212.03 314.71 208.48" stroke="black" stroke-miterlimit="10"/>
<path d="M301.32 178.7L321.6 184.54L302.42 251.03L249.86 236.07" stroke="black" stroke-miterlimit="10"/>
<path d="M288.23 319.68L293.35 301.91L371.42 324.03L350.42 391.03L274.15 368.58L288.23 319.68Z" stroke="black" stroke-miterlimit="10"/>
<path d="M288.23 319.68C288.23 319.68 314.42 321.03 321.42 341.03C326.23 354.77 324.94 367.23 320.18 382.13" stroke="black" stroke-miterlimit="10"/>
<path d="M322.59 345.62C322.59 345.62 355.86 342.62 363.64 321.83" stroke="black" stroke-miterlimit="10"/>
<path d="M354.34 140.51C353.89 141.34 354.09 142.67 354.48 143.36C355.14 144.56 357.54 143.23 357.54 143.23C357.54 143.23 359.27 140.71 356.48 139.9C355.31 139.56 354.66 139.9 354.34 140.5" stroke="black" stroke-miterlimit="10"/>
<path d="M354.34 140.51C350.94 140.24 351.23 138.9 348.7 137.17C346.18 135.44 344.32 134.9 340.32 134.76C336.33 134.62 333.81 132.88 328.22 131.28C322.64 129.67 315.97 138.84 315.97 138.84L314.09 145.35L310.23 148.27C310.23 148.27 309.55 154.12 312.08 155.86C314.6 157.59 315.14 155.73 315.14 155.73C315.01 152.67 313.15 152.13 313.15 152.13L320.07 149.09C320.07 149.09 317.53 154.41 318.86 156.8L324.44 158.41C324.44 158.41 326.57 158.02 325.91 156.82C325.25 155.62 323.39 155.09 323.39 155.09C323.39 155.09 323.53 151.1 324.73 150.44C324.73 150.44 328.18 152.44 332.17 152.58L330.03 160.02C330.03 160.02 334.15 163.22 337.21 163.09C340.27 162.96 337.35 159.1 336.15 159.76C336.15 159.76 335.76 157.63 337.22 156.04C338.69 154.45 340.42 151.92 340.42 151.92C339.35 155.64 343.99 164.03 343.99 164.03C343.99 164.03 347.44 166.03 349.57 165.64C351.47 165.29 348.24 163.24 348.24 163.24C348.24 163.24 346.91 160.84 346.52 158.71C346.13 156.58 346.54 151.66 347.73 151C348.53 150.56 349.68 151.227 351.18 153C353.44 155.67 356.5 155.54 358.62 155.14C360.75 154.75 359.16 153.28 358.49 152.08C357.82 150.88 359.29 149.29 359.56 148.36C359.83 147.43 357.77 142.89 357.77 142.89" stroke="black" stroke-miterlimit="10"/>
<path d="M354.851 191.158L348.908 253.918L450.284 263.518L456.228 200.759L354.851 191.158Z" fill="url(#paint2_linear_4_11)" stroke="black" stroke-miterlimit="10"/>
<path d="M421.48 215.84C418.59 215.51 419.22 218.51 420.08 219.58C420.93 220.65 423.08 218.95 423.08 218.95C423.08 218.95 424.37 216.17 421.49 215.84H421.48Z" stroke="black" stroke-miterlimit="10"/>
<path d="M383.29 238.41C383.31 238.32 383.32 238.27 383.32 238.27C382.69 235.27 380.77 235.05 380.77 235.05L387.1 230.9C387.1 230.9 385.47 236.56 387.18 238.71L392.95 239.37C392.95 239.37 394.98 238.63 394.13 237.56C393.28 236.49 391.35 236.27 391.35 236.27C391.35 236.27 390.93 233.05 391.64 231.8" stroke="black" stroke-miterlimit="10"/>
<path d="M378.59 237.05C377.42 234.85 377.26 231.72 377.26 231.72L380.29 228.52" stroke="black" stroke-miterlimit="10"/>
<path d="M383.29 238.41C383.17 238.83 382.63 239.97 380.32 238.9C379.57 238.55 379.01 237.87 378.58 237.06" stroke="black" stroke-miterlimit="10"/>
<path d="M388.6 212.86C385.72 214.51 383.34 218.04 382.16 220.03" stroke="black" stroke-miterlimit="10"/>
<path d="M415.84 215.98C415.2 215.54 414.53 214.97 413.35 214.42C410.57 213.13 408.65 212.91 404.69 213.43C400.73 213.95 397.96 212.66 392.18 211.99C390.93 211.85 389.72 212.21 388.58 212.86" stroke="black" stroke-miterlimit="10"/>
<path d="M419.47 216.79C417.52 216.96 416.71 216.58 415.84 215.98" stroke="black" stroke-miterlimit="10"/>
<path d="M423.27 218.57C423.27 218.57 426.05 222.7 425.94 223.67C425.83 224.64 424.65 226.45 425.5 227.52C426.35 228.59 428.17 229.78 426.13 230.52C424.1 231.26 421.1 231.89 418.43 229.64C416.65 228.133 415.403 227.667 414.69 228.24C413.62 229.09 414.03 234.01 414.77 236.05C415.51 238.08 417.21 240.23 417.21 240.23C417.21 240.23 420.73 241.71 418.91 242.38C416.88 243.12 413.14 241.72 413.14 241.72C413.14 241.72 411.37 239.49 409.83 236.84" stroke="black" stroke-miterlimit="10"/>
<path d="M380.28 228.52L380.58 228.21L381.35 221.48C381.35 221.48 381.64 220.91 382.15 220.04" stroke="black" stroke-miterlimit="10"/>
<path d="M409.84 236.81C408.55 234.59 407.43 232.09 407.63 230.33C407.63 230.33 406.34 233.11 405.15 234.92C403.96 236.73 404.71 238.77 404.71 238.77C405.78 237.92 409.3 241.25 406.3 241.88C403.3 242.51 398.71 240.03 398.71 240.03L399.59 232.33C395.63 232.85 391.89 231.45 391.89 231.45C391.79 231.53 391.7 231.65 391.63 231.79" stroke="black" stroke-miterlimit="10"/>
<path d="M332.032 297.058L286.066 373.619L411.684 449.038L457.651 372.477L332.032 297.058Z" fill="url(#paint3_linear_4_11)" stroke="black" stroke-miterlimit="10"/>
<path d="M313.4 372.81L357.14 397.47C359.31 398.69 361.92 398.38 363.73 396.88C364.27 396.44 374.04 379.4 374.04 379.4C375.63 376.59 374.63 373.02 371.82 371.44L328.08 346.78C325.27 345.19 321.7 346.19 320.12 349L311.18 364.85C309.59 367.66 310.59 371.23 313.4 372.81Z" stroke="black" stroke-miterlimit="10"/>
<path d="M416.14 402.55C415.57 403.15 415.43 404.31 415.6 404.99C415.88 406.15 418.21 405.58 418.21 405.58C418.21 405.58 420.25 403.85 418.08 402.53C417.17 401.98 416.54 402.12 416.13 402.55" stroke="black" stroke-miterlimit="10"/>
<path d="M416.14 402.55C413.33 401.54 413.88 400.48 412.14 398.43C410.41 396.39 408.96 395.51 405.62 394.47C402.28 393.43 400.55 391.39 396.2 388.75C391.85 386.11 384.11 392.32 384.11 392.32L381.03 397.39L377.1 398.97C377.1 398.97 375.19 403.76 376.92 405.8C378.65 407.84 379.53 406.39 379.53 406.39C380.12 403.78 378.68 402.9 378.68 402.9L385.23 401.92C385.23 401.92 381.87 405.83 382.44 408.16L386.79 410.8C386.79 410.8 388.68 410.96 388.39 409.79C388.11 408.63 386.66 407.75 386.66 407.75C386.66 407.75 387.69 404.41 388.86 404.13C388.86 404.13 391.32 406.61 394.66 407.65L391.14 413.45C391.14 413.45 393.88 417.1 396.5 417.69C399.11 418.28 397.53 414.35 396.37 414.64C396.37 414.64 396.52 412.75 398.13 411.74C399.73 410.73 401.78 409 401.78 409C400.02 411.9 402.01 420.05 402.01 420.05C402.01 420.05 404.47 422.53 406.36 422.69C408.05 422.83 405.79 420.36 405.79 420.36C405.79 420.36 405.22 418.03 405.38 416.14C405.53 414.25 407.01 410.19 408.17 409.9C408.943 409.713 409.763 410.54 410.63 412.38C411.92 415.15 414.54 415.74 416.43 415.9C418.32 416.06 417.31 414.45 417.02 413.29C416.74 412.13 418.34 411.12 418.78 410.39C419.22 409.67 418.52 405.36 418.52 405.36" stroke="black" stroke-miterlimit="10"/>
<path d="M168.183 235.682L54.6486 285.143L124.039 444.424L237.573 394.964L168.183 235.682Z" fill="url(#paint4_linear_4_11)" stroke="black" stroke-miterlimit="10"/>
<path d="M165.51 254.98C163.27 249.83 165.62 243.84 170.77 241.6C175.92 239.36 181.91 241.71 184.15 246.86C186.39 252.01 184.04 258 178.89 260.24" stroke="black" stroke-miterlimit="10"/>
<path d="M169.57 264.3C167.33 259.15 169.68 253.16 174.83 250.92C179.98 248.68 185.97 251.03 188.21 256.18C190.45 261.33 188.1 267.32 182.95 269.56" stroke="black" stroke-miterlimit="10"/>
<path d="M173.63 273.62C171.39 268.47 173.74 262.48 178.89 260.24C184.04 258 190.03 260.35 192.27 265.5C194.51 270.65 192.16 276.64 187.01 278.88" stroke="black" stroke-miterlimit="10"/>
<path d="M177.69 282.94C175.45 277.79 177.8 271.8 182.95 269.56C188.1 267.32 194.09 269.67 196.33 274.82C198.57 279.97 196.22 285.96 191.07 288.2" stroke="black" stroke-miterlimit="10"/>
<path d="M181.75 292.26C179.51 287.11 181.86 281.12 187.01 278.88C192.16 276.64 198.15 278.99 200.39 284.14C202.63 289.29 200.28 295.28 195.13 297.52" stroke="black" stroke-miterlimit="10"/>
<path d="M185.81 301.58C183.57 296.43 185.92 290.44 191.07 288.2C196.22 285.96 202.21 288.31 204.45 293.46C206.69 298.61 204.34 304.6 199.19 306.84" stroke="black" stroke-miterlimit="10"/>
<path d="M189.87 310.9C187.63 305.75 189.98 299.76 195.13 297.52C200.28 295.28 206.27 297.63 208.51 302.78C210.75 307.93 208.4 313.92 203.25 316.16" stroke="black" stroke-miterlimit="10"/>
<path d="M193.93 320.22C191.69 315.07 194.04 309.08 199.19 306.84C204.34 304.6 210.33 306.95 212.57 312.1C214.81 317.25 212.46 323.24 207.31 325.48" stroke="black" stroke-miterlimit="10"/>
<path d="M197.99 329.54C195.75 324.39 198.1 318.4 203.25 316.16C208.4 313.92 214.39 316.27 216.63 321.42C218.87 326.57 216.52 332.56 211.37 334.8" stroke="black" stroke-miterlimit="10"/>
<path d="M202.05 338.86C199.81 333.71 202.16 327.72 207.31 325.48C212.46 323.24 218.45 325.59 220.69 330.74C222.93 335.89 220.58 341.88 215.43 344.12" stroke="black" stroke-miterlimit="10"/>
<path d="M206.12 348.18C203.88 343.03 206.23 337.04 211.38 334.8C216.53 332.56 222.52 334.91 224.76 340.06C227 345.21 224.65 351.2 219.5 353.44" stroke="black" stroke-miterlimit="10"/>
<path d="M210.18 357.5C207.94 352.35 210.29 346.36 215.44 344.12C220.59 341.88 226.58 344.23 228.82 349.38C231.06 354.53 228.71 360.52 223.56 362.76" stroke="black" stroke-miterlimit="10"/>
<path d="M214.24 366.82C212 361.67 214.35 355.68 219.5 353.44C224.65 351.2 230.64 353.55 232.88 358.7C235.12 363.85 232.77 369.84 227.62 372.08" stroke="black" stroke-miterlimit="10"/>
<path d="M218.3 376.14C216.06 370.99 218.41 365 223.56 362.76C228.71 360.52 234.7 362.87 236.94 368.02C239.18 373.17 236.83 379.16 231.68 381.4" stroke="black" stroke-miterlimit="10"/>
<path d="M222.36 385.45C220.12 380.3 222.47 374.31 227.62 372.07C232.77 369.83 238.76 372.18 241 377.33C243.24 382.48 240.89 388.47 235.74 390.71" stroke="black" stroke-miterlimit="10"/>
<path d="M162.93 309.41C163.14 310.82 164.58 312.25 165.68 312.75C167.57 313.6 169.27 309.83 169.27 309.83C169.27 309.83 169.09 305.2 164.98 306.75C163.26 307.4 162.78 308.4 162.93 309.41Z" stroke="black" stroke-miterlimit="10"/>
<path d="M173.77 327.61C177.17 327.25 179.69 325.1 181.4 323.26C183.62 320.85 180.37 320.52 178.48 319.67C177.45 319.21 177.09 318.03 176.88 316.83" stroke="black" stroke-miterlimit="10"/>
<path d="M173.77 327.61C172.74 327.72 171.63 327.67 170.43 327.4C166.997 326.607 164.997 326.84 164.43 328.1C163.58 329.99 167.53 336.32 169.94 338.55C170.11 338.71 170.29 338.87 170.48 339.02" stroke="black" stroke-miterlimit="10"/>
<path d="M168.55 345.73C170.39 346.7 171.68 347.28 171.68 347.28C171.68 347.28 177.68 346.58 179.9 344.18C181.89 342.03 176.12 342.47 176.12 342.47C176.12 342.47 172.87 341 170.48 339.01" stroke="black" stroke-miterlimit="10"/>
<path d="M162.93 309.41C158.57 312.17 157.7 310.28 153.07 310.46C148.44 310.64 145.7 311.68 140.74 315.12C135.78 318.56 131.15 318.74 122.92 321.85C114.7 324.95 114.91 342.1 114.91 342.1L118.53 351.69L116.49 358.72C116.49 358.72 120.97 366.43 125.59 366.24C130.22 366.06 129.18 363.32 129.18 363.32C126.26 359.73 123.52 360.76 123.52 360.76L129.16 350.8C129.16 350.8 130.89 359.54 134.67 361.25L142.89 358.15C142.89 358.15 145.11 355.74 143.23 354.89C141.34 354.04 138.6 355.07 138.6 355.07C138.6 355.07 135.16 350.11 136.01 348.22C136.01 348.22 142.01 347.52 146.97 344.08L151.11 355.04C151.11 355.04 159 355.19 162.59 352.27C166.18 349.35 159.15 347.31 158.3 349.19C158.3 349.19 155.89 346.97 156.23 343.71C156.57 340.45 156.38 335.82 156.38 335.82C157.8 339.59 164.49 343.59 168.54 345.72" stroke="black" stroke-miterlimit="10"/>
<path d="M176.87 316.82C176.7 315.82 176.63 314.8 176.4 314.18C175.88 312.81 169.28 309.17 169.28 309.17" stroke="black" stroke-miterlimit="10"/>
<path d="M187.75 401.88C181.37 403.08 176.66 397.69 177.12 391.8L303.56 258.54L327.17 246.04L314.19 268.62L187.75 401.87V401.88Z" fill="url(#paint5_linear_4_11)" stroke="black" stroke-miterlimit="10"/>
<path d="M303.57 258.55C308.79 259.94 312.3 263.34 314.2 268.64" stroke="black" stroke-miterlimit="10"/>
<path d="M189.73 378.52C190.96 384.15 194.73 387.28 200.36 388.61" stroke="black" stroke-miterlimit="10"/>
<path d="M185.32 383.16C186.53 389.14 190.23 392.33 195.95 393.25" stroke="black" stroke-miterlimit="10"/>
<path d="M319.67 250.02C319.92 252.02 321.05 253.07 323.05 253.21" stroke="black" stroke-miterlimit="10"/>
</g>
</g>
<defs>
<linearGradient id="paint0_linear_4_11" x1="42.73" y1="107.04" x2="466.49" y2="279.45" gradientUnits="userSpaceOnUse">
<stop stop-color="#F7CE68"/>
<stop offset="0.78" stop-color="#FB6E38"/>
</linearGradient>
<linearGradient id="paint1_linear_4_11" x1="7.56003" y1="131.83" x2="440.43" y2="313.96" gradientUnits="userSpaceOnUse">
<stop stop-color="#F7CE68"/>
<stop offset="0.78" stop-color="#FB6E38"/>
</linearGradient>
<linearGradient id="paint2_linear_4_11" x1="23.6531" y1="50.6402" x2="484.453" y2="265.56" gradientUnits="userSpaceOnUse">
<stop stop-color="#F7CE68"/>
<stop offset="0.78" stop-color="#FB6E38"/>
</linearGradient>
<linearGradient id="paint3_linear_4_11" x1="-34.1814" y1="177.675" x2="416.289" y2="394.415" gradientUnits="userSpaceOnUse">
<stop stop-color="#F7CE68"/>
<stop offset="0.78" stop-color="#FB6E38"/>
</linearGradient>
<linearGradient id="paint4_linear_4_11" x1="-35.3549" y1="269.384" x2="398.115" y2="438.164" gradientUnits="userSpaceOnUse">
<stop stop-color="#F7CE68"/>
<stop offset="0.78" stop-color="#FB6E38"/>
</linearGradient>
<linearGradient id="paint5_linear_4_11" x1="-18.67" y1="206.79" x2="418.31" y2="393.55" gradientUnits="userSpaceOnUse">
<stop stop-color="#F7CE68"/>
<stop offset="0.78" stop-color="#FB6E38"/>
</linearGradient>
<clipPath id="clip0_4_11">
<rect width="512" height="512" fill="white"/>
</clipPath>
<clipPath id="clip1_4_11">
<rect width="404.34" height="386.71" fill="white" transform="translate(54 63)"/>
</clipPath>
</defs>
</svg>
