<svg xmlns="http://www.w3.org/2000/svg" width="512" height="512" fill="none" shape-rendering="geometricPrecision">
  <g clip-path="url(#a)">
    <path fill="#202020" d="M202 26 30.5 224l209 254.5 237.5-204L202 26Z"/>
    <g clip-path="url(#b)">
      <path fill="url(#c)" d="M298.98 75.92 307.99 243a8.026 8.026 0 0 1-7.6 8.45L73.22 263.97a7.28 7.28 0 0 1-7.68-6.85L55.65 84.27a7.28 7.28 0 0 1 6.85-7.68l228.48-13.08a7.28 7.28 0 0 1 7.68 6.85l.32 5.55"/>
      <path stroke="#000" stroke-miterlimit="10" d="M298.98 75.92 307.99 243a8.026 8.026 0 0 1-7.6 8.45L73.22 263.97a7.28 7.28 0 0 1-7.68-6.85L55.65 84.27a7.28 7.28 0 0 1 6.85-7.68l228.48-13.08a7.28 7.28 0 0 1 7.68 6.85l.32 5.55M55.97 89.82l243.01-13.9"/>
      <path stroke="#000" stroke-miterlimit="10" d="M67.86 82.39a2.98 2.98 0 0 0-3.15-2.81 2.98 2.98 0 0 0-2.81 3.15 2.98 2.98 0 0 0 3.15 2.81 2.98 2.98 0 0 0 2.81-3.15ZM77.39 81.85a2.98 2.98 0 0 0-3.15-2.81 2.98 2.98 0 0 0-2.81 3.15A2.98 2.98 0 0 0 74.58 85a2.98 2.98 0 0 0 2.81-3.15ZM86.93 81.3a2.98 2.98 0 0 0-3.15-2.81 2.98 2.98 0 0 0-2.81 3.15 2.98 2.98 0 0 0 3.15 2.81 2.98 2.98 0 0 0 2.81-3.15ZM169.39 134.72c-.2 2.17 1.43 4.82 2.89 5.95 2.5 1.95 6.4-3.04 6.4-3.04s1.41-6.95-5.27-6.13c-2.79.34-3.88 1.66-4.02 3.22Z"/>
      <path stroke="#000" stroke-miterlimit="10" d="M169.39 134.72c-7.47 2.51-8.08-.61-15.03-2.02-6.95-1.41-11.4-.86-20.03 2.45-8.63 3.32-15.58 1.91-28.93 3.54-13.35 1.64-19.25 27.2-19.25 27.2l1.91 15.58-5.58 9.72s3.86 13.08 10.81 14.48c6.95 1.41 6.4-3.04 6.4-3.04-3.04-6.4-7.49-5.86-7.49-5.86l11.99-12.76s-.59 13.62 4.41 17.53l13.35-1.64s4.18-2.77 1.68-4.72c-2.5-1.95-6.95-1.41-6.95-1.41s-3.32-8.63-1.36-11.13c0 0 9.17 1.13 17.8-2.18l2.18 17.8s11.67 3.09 18.07.04c6.4-3.04-3.32-8.63-5.27-6.13 0 0-2.77-4.18-1.09-8.9 1.68-4.72 3.09-11.67 3.09-11.67 1.09 8.9 18.57 22.57 18.57 22.57s9.17 1.13 13.35-1.64c3.74-2.48-5-3.9-5-3.9s-5-3.9-7.77-8.08c-2.77-4.18-6.36-15.03-4.41-17.53 1.3-1.667 4.357-1.29 9.17 1.13 7.22 3.63 13.62.59 17.8-2.18 4.18-2.77-.55-4.45-3.04-6.4-2.5-1.95-.82-6.68-1.09-8.9-.27-2.23-8.77-10.02-8.77-10.02M169.39 134.72h.01"/>
      <path fill="url(#d)" stroke="#000" stroke-miterlimit="10" d="m160.42 371.03 194.53 56.36 83.31-289.22-193.84-55.83-84 288.69Z"/>
      <path stroke="#000" stroke-miterlimit="10" d="m406.42 209.03-74.05-21.39M313.42 254.03l72.57 21.25M401.42 226.03l-73.37-21.58M330.45 196.11l72.97 20.92M318.45 237.78l72.97 21.25M320.85 229.44l72.57 20.59M388.39 266.95l-72.34-20.84M396.42 242.03l-73.17-20.92M325.65 212.78l72.77 21.25M282.42 299.03l-75.22-21.94M187.42 344.03l75.96 21.44M277.78 315.47l-75.36-21.44M204.8 285.43l75.38 21.71M193.42 327.03l74.76 21.78M270.58 340.47l-75.16-21.44M265.78 357.14l-75.36-22.11M272.98 332.14l-74.56-21.11M200.42 303.03l74.96 20.78M383.62 283.49l-164.6-47.42M378.82 300.15l-164.61-47.41M216.61 244.4l164.61 47.42M209.41 269.4l164.61 47.42M211.81 261.07l164.61 47.42M249.86 236.07l-30.53-8.8 7.39-25.65"/>
      <path stroke="#000" stroke-miterlimit="10" d="m226.72 201.62 11.81-41.01 62.79 18.09M249.86 236.07l20.07-6.91-11.74-4.27 24.55-11.74-12.81-4.27 14.64-9.51"/>
      <path stroke="#000" stroke-miterlimit="10" d="m284.57 199.37 6.71-4.36-10.67-2.14 20.71-14.17M275.59 216.57c-28.17-16.55-48.87-14.96-48.87-14.96M284.57 199.37s12.85 12.66 30.14 9.11"/>
      <path stroke="#000" stroke-miterlimit="10" d="m301.32 178.7 20.28 5.84-19.18 66.49-52.56-14.96M288.23 319.68l5.12-17.77 78.07 22.12-21 67-76.27-22.45 14.08-48.9Z"/>
      <path stroke="#000" stroke-miterlimit="10" d="M288.23 319.68s26.19 1.35 33.19 21.35c4.81 13.74 3.52 26.2-1.24 41.1"/>
      <path stroke="#000" stroke-miterlimit="10" d="M322.59 345.62s33.27-3 41.05-23.79M354.34 140.51c-.45.83-.25 2.16.14 2.85.66 1.2 3.06-.13 3.06-.13s1.73-2.52-1.06-3.33c-1.17-.34-1.82 0-2.14.6"/>
      <path stroke="#000" stroke-miterlimit="10" d="M354.34 140.51c-3.4-.27-3.11-1.61-5.64-3.34-2.52-1.73-4.38-2.27-8.38-2.41-3.99-.14-6.51-1.88-12.1-3.48-5.58-1.61-12.25 7.56-12.25 7.56l-1.88 6.51-3.86 2.92s-.68 5.85 1.85 7.59c2.52 1.73 3.06-.13 3.06-.13-.13-3.06-1.99-3.6-1.99-3.6l6.92-3.04s-2.54 5.32-1.21 7.71l5.58 1.61s2.13-.39 1.47-1.59c-.66-1.2-2.52-1.73-2.52-1.73s.14-3.99 1.34-4.65c0 0 3.45 2 7.44 2.14l-2.14 7.44s4.12 3.2 7.18 3.07c3.06-.13.14-3.99-1.06-3.33 0 0-.39-2.13 1.07-3.72 1.47-1.59 3.2-4.12 3.2-4.12-1.07 3.72 3.57 12.11 3.57 12.11s3.45 2 5.58 1.61c1.9-.35-1.33-2.4-1.33-2.4s-1.33-2.4-1.72-4.53c-.39-2.13.02-7.05 1.21-7.71.8-.44 1.95.227 3.45 2 2.26 2.67 5.32 2.54 7.44 2.14 2.13-.39.54-1.86-.13-3.06s.8-2.79 1.07-3.72c.27-.93-1.79-5.47-1.79-5.47"/>
      <path fill="url(#e)" stroke="#000" stroke-miterlimit="10" d="m354.851 191.158-5.943 62.76 101.376 9.6 5.944-62.759-101.377-9.601Z"/>
      <path stroke="#000" stroke-miterlimit="10" d="M421.48 215.84c-2.89-.33-2.26 2.67-1.4 3.74.85 1.07 3-.63 3-.63s1.29-2.78-1.59-3.11h-.01ZM383.29 238.41l.03-.14c-.63-3-2.55-3.22-2.55-3.22l6.33-4.15s-1.63 5.66.08 7.81l5.77.66s2.03-.74 1.18-1.81c-.85-1.07-2.78-1.29-2.78-1.29s-.42-3.22.29-4.47M378.59 237.05c-1.17-2.2-1.33-5.33-1.33-5.33l3.03-3.2M383.29 238.41c-.12.42-.66 1.56-2.97.49-.75-.35-1.31-1.03-1.74-1.84M388.6 212.86c-2.88 1.65-5.26 5.18-6.44 7.17"/>
      <path stroke="#000" stroke-miterlimit="10" d="M415.84 215.98c-.64-.44-1.31-1.01-2.49-1.56-2.78-1.29-4.7-1.51-8.66-.99s-6.73-.77-12.51-1.44c-1.25-.14-2.46.22-3.6.87M419.47 216.79c-1.95.17-2.76-.21-3.63-.81M423.27 218.57s2.78 4.13 2.67 5.1c-.11.97-1.29 2.78-.44 3.85.85 1.07 2.67 2.26.63 3-2.03.74-5.03 1.37-7.7-.88-1.78-1.507-3.027-1.973-3.74-1.4-1.07.85-.66 5.77.08 7.81.74 2.03 2.44 4.18 2.44 4.18s3.52 1.48 1.7 2.15c-2.03.74-5.77-.66-5.77-.66s-1.77-2.23-3.31-4.88M380.28 228.52l.3-.31.77-6.73s.29-.57.8-1.44M409.84 236.81c-1.29-2.22-2.41-4.72-2.21-6.48 0 0-1.29 2.78-2.48 4.59s-.44 3.85-.44 3.85c1.07-.85 4.59 2.48 1.59 3.11-3 .63-7.59-1.85-7.59-1.85l.88-7.7c-3.96.52-7.7-.88-7.7-.88-.1.08-.19.2-.26.34"/>
      <path fill="url(#f)" stroke="#000" stroke-miterlimit="10" d="m332.032 297.058-45.966 76.561 125.618 75.419 45.967-76.561-125.619-75.419Z"/>
      <path stroke="#000" stroke-miterlimit="10" d="m313.4 372.81 43.74 24.66c2.17 1.22 4.78.91 6.59-.59.54-.44 10.31-17.48 10.31-17.48a5.84 5.84 0 0 0-2.22-7.96l-43.74-24.66a5.84 5.84 0 0 0-7.96 2.22l-8.94 15.85a5.84 5.84 0 0 0 2.22 7.96ZM416.14 402.55c-.57.6-.71 1.76-.54 2.44.28 1.16 2.61.59 2.61.59s2.04-1.73-.13-3.05c-.91-.55-1.54-.41-1.95.02"/>
      <path stroke="#000" stroke-miterlimit="10" d="M416.14 402.55c-2.81-1.01-2.26-2.07-4-4.12-1.73-2.04-3.18-2.92-6.52-3.96-3.34-1.04-5.07-3.08-9.42-5.72-4.35-2.64-12.09 3.57-12.09 3.57l-3.08 5.07-3.93 1.58s-1.91 4.79-.18 6.83 2.61.59 2.61.59c.59-2.61-.85-3.49-.85-3.49l6.55-.98s-3.36 3.91-2.79 6.24l4.35 2.64s1.89.16 1.6-1.01c-.28-1.16-1.73-2.04-1.73-2.04s1.03-3.34 2.2-3.62c0 0 2.46 2.48 5.8 3.52l-3.52 5.8s2.74 3.65 5.36 4.24c2.61.59 1.03-3.34-.13-3.05 0 0 .15-1.89 1.76-2.9 1.6-1.01 3.65-2.74 3.65-2.74-1.76 2.9.23 11.05.23 11.05s2.46 2.48 4.35 2.64c1.69.14-.57-2.33-.57-2.33s-.57-2.33-.41-4.22c.15-1.89 1.63-5.95 2.79-6.24.773-.187 1.593.64 2.46 2.48 1.29 2.77 3.91 3.36 5.8 3.52 1.89.16.88-1.45.59-2.61-.28-1.16 1.32-2.17 1.76-2.9.44-.72-.26-5.03-.26-5.03"/>
      <path fill="url(#g)" stroke="#000" stroke-miterlimit="10" d="M168.183 235.682 54.649 285.143l69.39 159.281 113.534-49.46-69.39-159.282Z"/>
      <path stroke="#000" stroke-miterlimit="10" d="M165.51 254.98c-2.24-5.15.11-11.14 5.26-13.38 5.15-2.24 11.14.11 13.38 5.26 2.24 5.15-.11 11.14-5.26 13.38"/>
      <path stroke="#000" stroke-miterlimit="10" d="M169.57 264.3c-2.24-5.15.11-11.14 5.26-13.38 5.15-2.24 11.14.11 13.38 5.26 2.24 5.15-.11 11.14-5.26 13.38"/>
      <path stroke="#000" stroke-miterlimit="10" d="M173.63 273.62c-2.24-5.15.11-11.14 5.26-13.38 5.15-2.24 11.14.11 13.38 5.26 2.24 5.15-.11 11.14-5.26 13.38"/>
      <path stroke="#000" stroke-miterlimit="10" d="M177.69 282.94c-2.24-5.15.11-11.14 5.26-13.38 5.15-2.24 11.14.11 13.38 5.26 2.24 5.15-.11 11.14-5.26 13.38"/>
      <path stroke="#000" stroke-miterlimit="10" d="M181.75 292.26c-2.24-5.15.11-11.14 5.26-13.38 5.15-2.24 11.14.11 13.38 5.26 2.24 5.15-.11 11.14-5.26 13.38"/>
      <path stroke="#000" stroke-miterlimit="10" d="M185.81 301.58c-2.24-5.15.11-11.14 5.26-13.38 5.15-2.24 11.14.11 13.38 5.26 2.24 5.15-.11 11.14-5.26 13.38"/>
      <path stroke="#000" stroke-miterlimit="10" d="M189.87 310.9c-2.24-5.15.11-11.14 5.26-13.38 5.15-2.24 11.14.11 13.38 5.26 2.24 5.15-.11 11.14-5.26 13.38"/>
      <path stroke="#000" stroke-miterlimit="10" d="M193.93 320.22c-2.24-5.15.11-11.14 5.26-13.38 5.15-2.24 11.14.11 13.38 5.26 2.24 5.15-.11 11.14-5.26 13.38"/>
      <path stroke="#000" stroke-miterlimit="10" d="M197.99 329.54c-2.24-5.15.11-11.14 5.26-13.38 5.15-2.24 11.14.11 13.38 5.26 2.24 5.15-.11 11.14-5.26 13.38"/>
      <path stroke="#000" stroke-miterlimit="10" d="M202.05 338.86c-2.24-5.15.11-11.14 5.26-13.38 5.15-2.24 11.14.11 13.38 5.26 2.24 5.15-.11 11.14-5.26 13.38"/>
      <path stroke="#000" stroke-miterlimit="10" d="M206.12 348.18c-2.24-5.15.11-11.14 5.26-13.38 5.15-2.24 11.14.11 13.38 5.26 2.24 5.15-.11 11.14-5.26 13.38"/>
      <path stroke="#000" stroke-miterlimit="10" d="M210.18 357.5c-2.24-5.15.11-11.14 5.26-13.38 5.15-2.24 11.14.11 13.38 5.26 2.24 5.15-.11 11.14-5.26 13.38"/>
      <path stroke="#000" stroke-miterlimit="10" d="M214.24 366.82c-2.24-5.15.11-11.14 5.26-13.38 5.15-2.24 11.14.11 13.38 5.26 2.24 5.15-.11 11.14-5.26 13.38"/>
      <path stroke="#000" stroke-miterlimit="10" d="M218.3 376.14c-2.24-5.15.11-11.14 5.26-13.38 5.15-2.24 11.14.11 13.38 5.26 2.24 5.15-.11 11.14-5.26 13.38"/>
      <path stroke="#000" stroke-miterlimit="10" d="M222.36 385.45c-2.24-5.15.11-11.14 5.26-13.38 5.15-2.24 11.14.11 13.38 5.26 2.24 5.15-.11 11.14-5.26 13.38M162.93 309.41c.21 1.41 1.65 2.84 2.75 3.34 1.89.85 3.59-2.92 3.59-2.92s-.18-4.63-4.29-3.08c-1.72.65-2.2 1.65-2.05 2.66ZM173.77 327.61c3.4-.36 5.92-2.51 7.63-4.35 2.22-2.41-1.03-2.74-2.92-3.59-1.03-.46-1.39-1.64-1.6-2.84M173.77 327.61c-1.03.11-2.14.06-3.34-.21-3.433-.793-5.433-.56-6 .7-.85 1.89 3.1 8.22 5.51 10.45.17.16.35.32.54.47"/>
      <path stroke="#000" stroke-miterlimit="10" d="M168.55 345.73c1.84.97 3.13 1.55 3.13 1.55s6-.7 8.22-3.1c1.99-2.15-3.78-1.71-3.78-1.71s-3.25-1.47-5.64-3.46M162.93 309.41c-4.36 2.76-5.23.87-9.86 1.05-4.63.18-7.37 1.22-12.33 4.66-4.96 3.44-9.59 3.62-17.82 6.73-8.22 3.1-8.01 20.25-8.01 20.25l3.62 9.59-2.04 7.03s4.48 7.71 9.1 7.52c4.63-.18 3.59-2.92 3.59-2.92-2.92-3.59-5.66-2.56-5.66-2.56l5.64-9.96s1.73 8.74 5.51 10.45l8.22-3.1s2.22-2.41.34-3.26c-1.89-.85-4.63.18-4.63.18s-3.44-4.96-2.59-6.85c0 0 6-.7 10.96-4.14l4.14 10.96s7.89.15 11.48-2.77c3.59-2.92-3.44-4.96-4.29-3.08 0 0-2.41-2.22-2.07-5.48.34-3.26.15-7.89.15-7.89 1.42 3.77 8.11 7.77 12.16 9.9M176.87 316.82c-.17-1-.24-2.02-.47-2.64-.52-1.37-7.12-5.01-7.12-5.01"/>
      <path fill="url(#h)" stroke="#000" stroke-miterlimit="10" d="M187.75 401.88c-6.38 1.2-11.09-4.19-10.63-10.08l126.44-133.26 23.61-12.5-12.98 22.58-126.44 133.25v.01Z"/>
      <path stroke="#000" stroke-miterlimit="10" d="M303.57 258.55c5.22 1.39 8.73 4.79 10.63 10.09M189.73 378.52c1.23 5.63 5 8.76 10.63 10.09M185.32 383.16c1.21 5.98 4.91 9.17 10.63 10.09M319.67 250.02c.25 2 1.38 3.05 3.38 3.19"/>
    </g>
  </g>
  <defs>
    <linearGradient id="c" x1="42.73" x2="466.49" y1="107.04" y2="279.45" gradientUnits="userSpaceOnUse">
      <stop stop-color="#F7CE68"/>
      <stop offset=".78" stop-color="#FB6E38"/>
    </linearGradient>
    <linearGradient id="d" x1="7.56" x2="440.43" y1="131.83" y2="313.96" gradientUnits="userSpaceOnUse">
      <stop stop-color="#F7CE68"/>
      <stop offset=".78" stop-color="#FB6E38"/>
    </linearGradient>
    <linearGradient id="e" x1="23.653" x2="484.453" y1="50.64" y2="265.56" gradientUnits="userSpaceOnUse">
      <stop stop-color="#F7CE68"/>
      <stop offset=".78" stop-color="#FB6E38"/>
    </linearGradient>
    <linearGradient id="f" x1="-34.181" x2="416.289" y1="177.675" y2="394.415" gradientUnits="userSpaceOnUse">
      <stop stop-color="#F7CE68"/>
      <stop offset=".78" stop-color="#FB6E38"/>
    </linearGradient>
    <linearGradient id="g" x1="-35.355" x2="398.115" y1="269.384" y2="438.164" gradientUnits="userSpaceOnUse">
      <stop stop-color="#F7CE68"/>
      <stop offset=".78" stop-color="#FB6E38"/>
    </linearGradient>
    <linearGradient id="h" x1="-18.67" x2="418.31" y1="206.79" y2="393.55" gradientUnits="userSpaceOnUse">
      <stop stop-color="#F7CE68"/>
      <stop offset=".78" stop-color="#FB6E38"/>
    </linearGradient>
    <clipPath id="a">
      <path fill="#fff" d="M0 0h512v512H0z"/>
    </clipPath>
    <clipPath id="b">
      <path fill="#fff" d="M54 63h404.34v386.71H54z"/>
    </clipPath>
  </defs>
</svg>