<svg xmlns="http://www.w3.org/2000/svg" width="512" height="512" fill="none" shape-rendering="geometricPrecision">
  <path fill="#202020" d="M280.5 33 56 135.5 185 476l292-225.5L280.5 33Z"/>
  <g stroke="#000" stroke-miterlimit="10" clip-path="url(#a)">
    <path fill="url(#b)" d="M320.393 105.475 39.279 164.869a7.28 7.28 0 0 0-5.618 8.627l45.11 213.507a7.28 7.28 0 0 0 8.627 5.618l281.114-59.394a7.28 7.28 0 0 0 5.618-8.628l-45.109-213.506a7.28 7.28 0 0 0-8.628-5.618Z"/>
    <path d="m35.45 181.95 295.35-62.41M45.01 175.09a3.7 3.7 0 1 0 0-7.4 3.7 3.7 0 0 0 0 7.4ZM56.6 172.64a3.7 3.7 0 1 0 0-7.4 3.7 3.7 0 0 0 0 7.4ZM68.19 170.19a3.7 3.7 0 1 0 0-7.4 3.7 3.7 0 0 0 0 7.4ZM141.28 349.11c25.808 0 46.73-20.922 46.73-46.73 0-25.808-20.922-46.73-46.73-46.73-25.808 0-46.73 20.922-46.73 46.73 0 25.808 20.922 46.73 46.73 46.73Z"/>
    <path d="M94.62 299.44s1.91-6.47 5.11-7.14c3.2-.67.53-2.02 2.07-3.78 1.54-1.76 5.85-1.71 6.74-4.29.89-2.58 1.25-3.13 2.69-5.35 1.44-2.22 2.81-8.44-1.46-11.02M95.73 311.77s2.72 6.11 7.3 5.15 1.33 4.02 3.45 5c2.12.98 2.65-1.04 6.14-.34 3.49.7 5.27 4.62 4.84 7.1-.43 2.48 2.6 3.27 1.71 5.85-.89 2.58-.1 8.98-.1 8.98M154.69 257.61s-2.72 8.36-6.11 8.13c-3.39-.24-5.83-4.98-5.37-5.07.46-.09-3.32-2.16-3.95-.6-.63 1.56-.04 4.31-3.25 4.98-3.21.67-5.61-1.68-6.11 2.72-.5 4.41 1.64 7.77.1 9.53-1.54 1.76-2.26 2.87-3.2.68-.94-2.19-2.63-5.65-3.9-4.91-1.27.74-2.33 4.79-1.03 6.43 1.3 1.64 4.86.41 4.14 1.51-.72 1.1-4.45 3.81-5.36 4-.91.19-5.17 4.91-1.22 5.51 3.95.6 6.26 2.5 3.97 2.98-2.29.48-6.06 7.49-4.35 13.34s-1.78 5.15-.12 6.23c1.66 1.08 12.66 1.15 17.21-2.2 4.55-3.35 3.16 3.63 5.93 5.44 2.77 1.81 5.47 5.53 5.04 8.01-.43 2.48 3.52 12.15 6.36 12.03 2.84-.12 1.71-3.23 5.36-4 3.66-.77 5.89-6.02 5.12-9.68-.77-3.66-2.29-8.59.42-11.55 2.72-2.96 7-5.3 5.77-8.86-1.23-3.56-5.51-1.22-7.92-3.58-2.41-2.36-5.13-8.47-4.41-9.58.72-1.11 2.67 1.35 2.96 2.72.29 1.37 2.63 5.65 4.46 5.27 1.83-.38 9.89-.66 7.7-8.79-2.2-8.13 6.04-.8 5.97 1.13-.07 1.93 2.07 5.29 3.09 5.56 1.02.27.87 4.12 1.78 3.92.91-.2-.08-7.15.64-8.26.72-1.11 1.6-1.77 1.6-1.77"/>
    <path d="M168.57 317.4s-3.7 5.08-1.39 6.98c2.31 1.9 5.22-.15 5.1-2.99-.12-2.84-3.71-3.99-3.71-3.99ZM130.85 288.11s-3.85-.14-3.23-1.71c.62-1.57 7.55-4.94 8.49-2.75.94 2.19 2.6 3.27 6.16 2.04s7.22-2 8.52-.37c1.3 1.63 1.64 7.77-.57 6.33-2.21-1.44-1.69-3.46-3.97-2.98-2.28.48-3.2.68-5.94 1.26s-2.38.03-4.5-.96-4.96-.86-4.96-.86ZM134.55 273.95s4.77-.05 4.84-1.98c.07-1.93-3.06-3.17-3.06-3.17s.7 5.58-1.78 5.15ZM142.42 193.18c.12 1.58 1.6 3.27 2.79 3.92 2.02 1.1 4.22-2.95 4.22-2.95s.01-.29-.05-.71c-.15-1.36-.9-4.11-4.47-3.05-1.96.58-2.58 1.66-2.49 2.79Z"/>
    <path d="M142.42 193.18c-5.06 2.7-5.87.54-11.01.36-5.15-.17-8.27.76-14.05 4.17-5.78 3.41-10.93 3.24-20.3 6.02-9.37 2.78-10.52 21.81-10.52 21.81l3.24 10.93-2.84 7.64s4.34 8.9 9.49 9.07c5.15.17 4.22-2.95 4.22-2.95-2.95-4.22-6.07-3.3-6.07-3.3l7.05-10.59s1.22 9.83 5.26 12.03l9.37-2.78s2.66-2.49.64-3.58c-2.02-1.1-5.14-.17-5.14-.17s-3.42-5.78-2.32-7.8c0 0 6.71-.3 12.49-3.71l3.71 12.5s8.74.8 12.96-2.15c4.22-2.95-3.42-5.78-4.51-3.76 0 0-2.49-2.66-1.85-6.25.64-3.59.81-8.73.81-8.73 1.85 6.25 16.02 13.94 16.02 13.94s6.71-.29 9.37-2.78c2.38-2.23-4.05-2.2-4.05-2.2s-4.05-2.19-6.54-4.85c-2.49-2.66-6.37-10-5.27-12.03.733-1.347 2.97-1.443 6.71-.29 5.61 1.73 9.83-1.22 12.49-3.7 2.65-2.49-.93-3.12-2.96-4.23-2.02-1.1-1.38-4.68-1.85-6.25-.46-1.56-7.49-6.12-7.49-6.12"/>
    <path fill="url(#c)" d="m441.456 99.536-85.952-20.747c-5.793-1.398-11.622 2.165-13.02 7.957l-40.221 166.635c-1.399 5.793 2.164 11.622 7.957 13.021l85.951 20.746c5.793 1.398 11.623-2.164 13.021-7.957l40.221-166.635c1.398-5.793-2.165-11.622-7.957-13.02Z"/>
    <path d="M446.213 113.028 345.116 88.627l-39.653 164.282 101.097 24.402 39.653-164.283ZM398.04 98.25a3 3 0 1 0 0-6 3 3 0 0 0 0 6Z"/>
    <path d="M369.66 238.01c18.446 0 33.4-14.954 33.4-33.4 0-18.446-14.954-33.4-33.4-33.4-18.446 0-33.4 14.954-33.4 33.4 0 18.446 14.954 33.4 33.4 33.4Z"/>
    <path d="M341.23 187.05s3.38-3.43 5.63-2.78c2.25.65 1.01-1.1 2.58-1.69 1.57-.59 4.26.89 5.69-.44 1.43-1.33 1.84-1.55 3.5-2.47 1.66-.92 4.61-4.38 2.78-7.44M337.78 195.2s-.34 4.77 2.87 5.7c3.21.93-.52 2.98.49 4.31 1.01 1.33 2.02.24 3.98 1.85s1.77 4.69.67 6.1c-1.1 1.41.54 2.94-.89 4.26-1.43 1.32-3.08 5.63-3.08 5.63M393.18 180.88s-4.53 4.36-6.59 3.07c-2.06-1.29-2-5.1-1.68-5.01.32.09-1.37-2.48-2.29-1.71-.92.77-1.48 2.7-3.72 2.05-2.24-.65-2.97-2.95-4.77-.34-1.8 2.61-1.58 5.45-3.14 6.04-1.56.59-2.39 1.05-2.25-.65.14-1.7.25-4.45-.81-4.41-1.06.04-3.08 2.24-2.81 3.71.27 1.47 2.93 1.89 2.1 2.35-.83.46-4.09.9-4.73.72-.64-.18-4.91 1.36-2.63 3.06 2.28 1.7 3.11 3.68 1.5 3.22-1.61-.46-6.34 2.68-7.23 6.95-.89 4.26-2.85 2.65-2.17 3.89.68 1.24 7.6 4.98 11.59 4.4 3.99-.58.77 3.35 1.91 5.42s1.59 5.33.48 6.75-1.87 8.85-.03 9.73c1.84.88 2.16-1.46 4.73-.72 2.57.74 5.74-1.81 6.48-4.38.74-2.57 1.44-6.19 4.15-7.14 2.71-.95 6.2-.99 6.62-3.65.42-2.66-3.06-2.63-3.79-4.92s-.39-7.07.44-7.52c.83-.45 1.23 1.75.95 2.71s-.25 4.45 1.04 4.82c1.29.37 6.46 2.91 7.81-2.95 1.35-5.87 4.08 1.53 3.39 2.72-.69 1.19-.47 4.04.08 4.54.55.5-.84 2.89-.19 3.07.65.18 2.36-4.53 3.18-4.99.82-.46 1.61-.58 1.61-.58"/>
    <path d="M381.82 223.25s-4.04 1.96-3.23 3.93c.81 1.97 3.34 1.66 4.22-.17.88-1.83-1-3.77-1-3.77l.01.01ZM367.89 192.1s-2.38-1.38-1.46-2.16c.92-.78 6.43-.57 6.28 1.12-.15 1.69.54 2.94 3.2 3.36 2.66.42 5.23 1.17 5.5 2.63.27 1.46-1.58 5.45-2.49 3.8-.91-1.65.1-2.75-1.5-3.22-1.6-.47-2.25-.65-4.17-1.21-1.92-.56-1.51-.79-2.52-2.12s-2.84-2.21-2.84-2.21v.01ZM374.98 184.41s3.02 1.57 3.71.38-.86-3.03-.86-3.03-1.44 3.76-2.85 2.65ZM407.12 136.13c-.46 1.04-.09 2.6.44 3.41.9 1.37 3.65-.44 3.65-.44s.1-.18.21-.46c.36-.91.82-2.9-1.79-3.43-1.43-.29-2.18.18-2.51.92Z"/>
    <path d="M407.12 136.13c-4.1 0-3.88-1.64-7.07-3.48-3.19-1.84-5.47-2.31-10.26-2.1-4.8.2-7.98-1.64-14.83-3.03s-13.97 10.21-13.97 10.21l-1.63 7.99-4.36 3.86s-.26 7.07 2.93 8.91c3.19 1.84 3.65-.44 3.65-.44-.44-3.65-2.72-4.12-2.72-4.12l8.01-4.3s-2.54 6.61-.73 9.36l6.84 1.4s2.52-.67 1.61-2.05c-.9-1.37-3.18-1.84-3.18-1.84s-.21-4.8 1.16-5.7c0 0 4.33 2.07 9.12 1.86l-1.87 9.13s5.24 3.45 8.89 3.01c3.65-.44-.21-4.8-1.58-3.89 0 0-.67-2.52.93-4.56 1.61-2.05 3.45-5.23 3.45-5.23-.93 4.56 5.41 14.18 5.41 14.18s4.33 2.07 6.84 1.4c2.25-.6-1.81-2.75-1.81-2.75s-1.82-2.75-2.49-5.26c-.67-2.51-.65-8.45.72-9.36.92-.6 2.363.093 4.33 2.08 2.95 2.98 6.61 2.54 9.12 1.87 2.51-.68.46-2.28-.44-3.66-.9-1.37.7-3.42.93-4.56.23-1.14-2.66-6.38-2.66-6.38"/>
    <path fill="url(#d)" d="m472.454 311.902-247.083-38.471a6.47 6.47 0 0 0-7.388 5.398L201.74 383.152a6.47 6.47 0 0 0 5.397 7.388l247.083 38.471a6.47 6.47 0 0 0 7.389-5.397l16.243-104.323a6.47 6.47 0 0 0-5.398-7.389Z"/>
    <path d="m369.632 390.708-107.07-16.671-2.778 17.845 107.07 16.671 2.778-17.845ZM233.572 369.529l-22.312-3.473-2.778 17.845 22.311 3.473 2.779-17.845ZM240.512 324.918l-22.311-3.474-2.779 17.845 22.312 3.474 2.778-17.845ZM250.421 349.307l-35.69-5.557-2.779 17.845 35.69 5.557 2.779-17.845ZM259.212 373.518l-22.311-3.474-2.778 17.845 22.311 3.474 2.778-17.845ZM395.284 394.71l-22.311-3.474-2.779 17.845 22.311 3.474 2.779-17.845ZM416.472 398.002l-17.845-2.778-2.779 17.845 17.845 2.778 2.779-17.845ZM437.672 401.304l-17.845-2.778-2.779 17.845 17.845 2.778 2.779-17.845ZM458.862 404.605l-17.845-2.778-2.779 17.845 17.845 2.778 2.779-17.845ZM271.61 352.605l-17.845-2.779-2.779 17.845 17.845 2.779 2.779-17.845ZM292.8 355.907l-17.845-2.779-2.779 17.845 17.845 2.779 2.779-17.845ZM313.99 359.208l-17.845-2.779-2.779 17.845 17.845 2.779 2.779-17.845ZM335.18 362.508l-17.845-2.778-2.779 17.845 17.845 2.778 2.779-17.845ZM356.371 365.799l-17.845-2.778-2.778 17.845 17.845 2.778 2.778-17.845ZM262.819 328.39l-17.845-2.778-2.778 17.845 17.845 2.778 2.778-17.845ZM284.011 331.681l-17.845-2.778-2.779 17.845 17.845 2.778 2.779-17.845ZM305.201 334.982l-17.845-2.778-2.779 17.845 17.845 2.778 2.779-17.845ZM326.381 338.283l-17.845-2.779-2.779 17.845 17.845 2.779 2.779-17.845ZM347.571 341.584l-17.845-2.779-2.779 17.845 17.845 2.779 2.779-17.845ZM368.762 344.884l-17.845-2.778-2.778 17.845 17.845 2.778 2.778-17.845ZM389.962 348.187l-17.845-2.779-2.778 17.845 17.845 2.779 2.778-17.845ZM411.152 351.488l-17.845-2.779-2.778 17.845 17.845 2.779 2.778-17.845ZM432.342 354.788l-17.845-2.778-2.778 17.845 17.845 2.778 2.778-17.845ZM239.689 300.8l-17.845-2.778-2.778 17.845 17.845 2.778 2.778-17.845ZM260.889 304.103l-17.845-2.779-2.778 17.845 17.845 2.779 2.778-17.845ZM282.081 307.394l-17.845-2.779-2.779 17.845 17.845 2.779 2.779-17.845ZM303.271 310.694l-17.845-2.778-2.779 17.845 17.845 2.778 2.779-17.845ZM324.461 313.995l-17.845-2.778-2.779 17.845 17.845 2.778 2.779-17.845ZM431.523 330.669l-17.845-2.778-2.779 17.845 17.845 2.778 2.779-17.845ZM452.713 333.97l-17.845-2.778-2.779 17.845 17.845 2.778 2.779-17.845ZM469.45 336.576l-13.389-2.085-2.778 17.845 13.389 2.085 2.778-17.845ZM345.651 317.296l-17.845-2.779-2.779 17.845 17.845 2.779 2.779-17.845ZM366.832 320.587l-17.845-2.779-2.778 17.845 17.845 2.779 2.778-17.845ZM388.022 323.888l-17.845-2.779-2.778 17.845 17.845 2.778 2.778-17.844ZM409.222 327.2l-17.845-2.779-2.778 17.845 17.845 2.779 2.778-17.845ZM242.385 283.514l-17.845-2.779-1.823 11.709 17.845 2.778 1.823-11.708ZM263.575 286.814l-17.845-2.778-1.823 11.709 17.845 2.778 1.823-11.709ZM284.767 290.105l-17.845-2.778-1.823 11.709 17.845 2.778 1.823-11.709ZM305.967 293.407l-17.845-2.778-1.823 11.709 17.845 2.778 1.823-11.709ZM327.147 296.708l-17.845-2.778-1.823 11.709 17.845 2.778 1.823-11.709ZM434.219 313.382l-17.845-2.778-1.823 11.709 17.845 2.778 1.823-11.709ZM455.409 316.683l-17.845-2.778-1.823 11.709 17.845 2.778 1.823-11.709ZM471.03 319.115l-11.156-1.737-1.823 11.709 11.156 1.737 1.823-11.709ZM348.337 300.009l-17.845-2.779-1.823 11.709 17.845 2.779 1.823-11.709ZM369.528 303.3l-17.845-2.779-1.823 11.709 17.845 2.779 1.823-11.709ZM390.718 306.611l-17.845-2.779-1.823 11.709 17.845 2.779 1.823-11.709ZM411.909 309.911l-17.845-2.778-1.824 11.709 17.845 2.778 1.824-11.709ZM465.809 359.998l-30.117-4.689-2.778 17.844 30.117 4.69 2.778-17.845ZM377.561 369.1l-17.845-2.778-2.778 17.845 17.845 2.778 2.778-17.845ZM419.954 375.703l-39.04-6.079-2.778 17.845 39.039 6.079 2.779-17.845ZM441.143 378.994l-17.845-2.779-2.779 17.845 17.845 2.779 2.779-17.845ZM462.333 382.295l-17.845-2.779-2.779 17.845 17.845 2.779 2.779-17.845Z"/>
    <path fill="url(#e)" d="M218.99 430.67c-5.15 3.95-11.79 1.27-14.04-4.19l52.59-176.02 15.41-21.82-1.37 26.01-52.59 176.01v.01Z"/>
    <path d="M257.54 250.47c5.29-1.12 9.95.33 14.04 4.19M210.2 408.94c3.64 4.46 8.42 5.55 14.04 4.19M208.36 415.07c3.79 4.79 8.53 5.97 14.04 4.19M268.06 235.58c1.12 1.67 2.61 2.1 4.46 1.32"/>
  </g>
  <defs>
    <linearGradient id="b" x1="14.296" x2="480.996" y1="148.211" y2="396.411" gradientUnits="userSpaceOnUse">
      <stop stop-color="#F7CE68"/>
      <stop offset=".78" stop-color="#FB6E38"/>
    </linearGradient>
    <linearGradient id="c" x1="82.017" x2="550.127" y1="23.639" y2="277.499" gradientUnits="userSpaceOnUse">
      <stop stop-color="#F7CE68"/>
      <stop offset=".78" stop-color="#FB6E38"/>
    </linearGradient>
    <linearGradient id="d" x1=".878" x2="473.238" y1="150.268" y2="430.298" gradientUnits="userSpaceOnUse">
      <stop stop-color="#F7CE68"/>
      <stop offset=".78" stop-color="#FB6E38"/>
    </linearGradient>
    <linearGradient id="e" x1="-21.4" x2="445.3" y1="200.36" y2="430.88" gradientUnits="userSpaceOnUse">
      <stop stop-color="#F7CE68"/>
      <stop offset=".78" stop-color="#FB6E38"/>
    </linearGradient>
    <clipPath id="a">
      <path fill="#fff" d="M33 78h445.45v355.05H33z"/>
    </clipPath>
  </defs>
</svg>