<svg width="512" height="512" viewBox="0 0 512 512" fill="none" xmlns="http://www.w3.org/2000/svg">
<path d="M280.5 33L56 135.5L185 476L477 250.5L280.5 33Z" fill="#202020"/>
<g clip-path="url(#clip0_4_10)">
<path d="M320.393 105.475L39.2787 164.869C35.3449 165.7 32.8297 169.563 33.6608 173.496L78.7705 387.003C79.6016 390.937 83.4644 393.452 87.3982 392.621L368.512 333.227C372.446 332.396 374.961 328.533 374.13 324.599L329.021 111.093C328.189 107.159 324.327 104.644 320.393 105.475Z" fill="url(#paint0_linear_4_10)" stroke="black" stroke-miterlimit="10"/>
<path d="M35.45 181.95L330.8 119.54" stroke="black" stroke-miterlimit="10"/>
<path d="M45.01 175.09C47.0535 175.09 48.71 173.433 48.71 171.39C48.71 169.347 47.0535 167.69 45.01 167.69C42.9665 167.69 41.31 169.347 41.31 171.39C41.31 173.433 42.9665 175.09 45.01 175.09Z" stroke="black" stroke-miterlimit="10"/>
<path d="M56.6 172.64C58.6434 172.64 60.3 170.983 60.3 168.94C60.3 166.897 58.6434 165.24 56.6 165.24C54.5565 165.24 52.9 166.897 52.9 168.94C52.9 170.983 54.5565 172.64 56.6 172.64Z" stroke="black" stroke-miterlimit="10"/>
<path d="M68.19 170.19C70.2334 170.19 71.89 168.533 71.89 166.49C71.89 164.447 70.2334 162.79 68.19 162.79C66.1465 162.79 64.49 164.447 64.49 166.49C64.49 168.533 66.1465 170.19 68.19 170.19Z" stroke="black" stroke-miterlimit="10"/>
<path d="M141.28 349.11C167.088 349.11 188.01 328.188 188.01 302.38C188.01 276.572 167.088 255.65 141.28 255.65C115.472 255.65 94.55 276.572 94.55 302.38C94.55 328.188 115.472 349.11 141.28 349.11Z" stroke="black" stroke-miterlimit="10"/>
<path d="M94.62 299.44C94.62 299.44 96.53 292.97 99.73 292.3C102.93 291.63 100.26 290.28 101.8 288.52C103.34 286.76 107.65 286.81 108.54 284.23C109.43 281.65 109.79 281.1 111.23 278.88C112.67 276.66 114.04 270.44 109.77 267.86" stroke="black" stroke-miterlimit="10"/>
<path d="M95.73 311.77C95.73 311.77 98.45 317.88 103.03 316.92C107.61 315.96 104.36 320.94 106.48 321.92C108.6 322.9 109.13 320.88 112.62 321.58C116.11 322.28 117.89 326.2 117.46 328.68C117.03 331.16 120.06 331.95 119.17 334.53C118.28 337.11 119.07 343.51 119.07 343.51" stroke="black" stroke-miterlimit="10"/>
<path d="M154.69 257.61C154.69 257.61 151.97 265.97 148.58 265.74C145.19 265.5 142.75 260.76 143.21 260.67C143.67 260.58 139.89 258.51 139.26 260.07C138.63 261.63 139.22 264.38 136.01 265.05C132.8 265.72 130.4 263.37 129.9 267.77C129.4 272.18 131.54 275.54 130 277.3C128.46 279.06 127.74 280.17 126.8 277.98C125.86 275.79 124.17 272.33 122.9 273.07C121.63 273.81 120.57 277.86 121.87 279.5C123.17 281.14 126.73 279.91 126.01 281.01C125.29 282.11 121.56 284.82 120.65 285.01C119.74 285.2 115.48 289.92 119.43 290.52C123.38 291.12 125.69 293.02 123.4 293.5C121.11 293.98 117.34 300.99 119.05 306.84C120.76 312.69 117.27 311.99 118.93 313.07C120.59 314.15 131.59 314.22 136.14 310.87C140.69 307.52 139.3 314.5 142.07 316.31C144.84 318.12 147.54 321.84 147.11 324.32C146.68 326.8 150.63 336.47 153.47 336.35C156.31 336.23 155.18 333.12 158.83 332.35C162.49 331.58 164.72 326.33 163.95 322.67C163.18 319.01 161.66 314.08 164.37 311.12C167.09 308.16 171.37 305.82 170.14 302.26C168.91 298.7 164.63 301.04 162.22 298.68C159.81 296.32 157.09 290.21 157.81 289.1C158.53 287.99 160.48 290.45 160.77 291.82C161.06 293.19 163.4 297.47 165.23 297.09C167.06 296.71 175.12 296.43 172.93 288.3C170.73 280.17 178.97 287.5 178.9 289.43C178.83 291.36 180.97 294.72 181.99 294.99C183.01 295.26 182.86 299.11 183.77 298.91C184.68 298.71 183.69 291.76 184.41 290.65C185.13 289.54 186.01 288.88 186.01 288.88" stroke="black" stroke-miterlimit="10"/>
<path d="M168.57 317.4C168.57 317.4 164.87 322.48 167.18 324.38C169.49 326.28 172.4 324.23 172.28 321.39C172.16 318.55 168.57 317.4 168.57 317.4Z" stroke="black" stroke-miterlimit="10"/>
<path d="M130.85 288.11C130.85 288.11 127 287.97 127.62 286.4C128.24 284.83 135.17 281.46 136.11 283.65C137.05 285.84 138.71 286.92 142.27 285.69C145.83 284.46 149.49 283.69 150.79 285.32C152.09 286.95 152.43 293.09 150.22 291.65C148.01 290.21 148.53 288.19 146.25 288.67C143.97 289.15 143.05 289.35 140.31 289.93C137.57 290.51 137.93 289.96 135.81 288.97C133.69 287.98 130.85 288.11 130.85 288.11Z" stroke="black" stroke-miterlimit="10"/>
<path d="M134.55 273.95C134.55 273.95 139.32 273.9 139.39 271.97C139.46 270.04 136.33 268.8 136.33 268.8C136.33 268.8 137.03 274.38 134.55 273.95Z" stroke="black" stroke-miterlimit="10"/>
<path d="M142.42 193.18C142.54 194.76 144.02 196.45 145.21 197.1C147.23 198.2 149.43 194.15 149.43 194.15C149.43 194.15 149.44 193.86 149.38 193.44C149.23 192.08 148.48 189.33 144.91 190.39C142.95 190.97 142.33 192.05 142.42 193.18Z" stroke="black" stroke-miterlimit="10"/>
<path d="M142.42 193.18C137.36 195.88 136.55 193.72 131.41 193.54C126.26 193.37 123.14 194.3 117.36 197.71C111.58 201.12 106.43 200.95 97.06 203.73C87.69 206.51 86.54 225.54 86.54 225.54L89.78 236.47L86.94 244.11C86.94 244.11 91.28 253.01 96.43 253.18C101.58 253.35 100.65 250.23 100.65 250.23C97.7 246.01 94.58 246.93 94.58 246.93L101.63 236.34C101.63 236.34 102.85 246.17 106.89 248.37L116.26 245.59C116.26 245.59 118.92 243.1 116.9 242.01C114.88 240.91 111.76 241.84 111.76 241.84C111.76 241.84 108.34 236.06 109.44 234.04C109.44 234.04 116.15 233.74 121.93 230.33L125.64 242.83C125.64 242.83 134.38 243.63 138.6 240.68C142.82 237.73 135.18 234.9 134.09 236.92C134.09 236.92 131.6 234.26 132.24 230.67C132.88 227.08 133.05 221.94 133.05 221.94C134.9 228.19 149.07 235.88 149.07 235.88C149.07 235.88 155.78 235.59 158.44 233.1C160.82 230.87 154.39 230.9 154.39 230.9C154.39 230.9 150.34 228.71 147.85 226.05C145.36 223.39 141.48 216.05 142.58 214.02C143.313 212.673 145.55 212.577 149.29 213.73C154.9 215.46 159.12 212.51 161.78 210.03C164.43 207.54 160.85 206.91 158.82 205.8C156.8 204.7 157.44 201.12 156.97 199.55C156.51 197.99 149.48 193.43 149.48 193.43" stroke="black" stroke-miterlimit="10"/>
<path d="M441.456 99.5357L355.504 78.7894C349.711 77.3912 343.882 80.9537 342.484 86.7465L302.263 253.381C300.864 259.174 304.427 265.003 310.22 266.402L396.171 287.148C401.964 288.546 407.794 284.984 409.192 279.191L449.413 112.556C450.811 106.763 447.248 100.934 441.456 99.5357Z" fill="url(#paint1_linear_4_10)" stroke="black" stroke-miterlimit="10"/>
<path d="M446.213 113.028L345.116 88.6266L305.463 252.909L406.56 277.311L446.213 113.028Z" stroke="black" stroke-miterlimit="10"/>
<path d="M398.04 98.25C399.697 98.25 401.04 96.9069 401.04 95.25C401.04 93.5931 399.697 92.25 398.04 92.25C396.383 92.25 395.04 93.5931 395.04 95.25C395.04 96.9069 396.383 98.25 398.04 98.25Z" stroke="black" stroke-miterlimit="10"/>
<path d="M369.66 238.01C388.106 238.01 403.06 223.056 403.06 204.61C403.06 186.164 388.106 171.21 369.66 171.21C351.214 171.21 336.26 186.164 336.26 204.61C336.26 223.056 351.214 238.01 369.66 238.01Z" stroke="black" stroke-miterlimit="10"/>
<path d="M341.23 187.05C341.23 187.05 344.61 183.62 346.86 184.27C349.11 184.92 347.87 183.17 349.44 182.58C351.01 181.99 353.7 183.47 355.13 182.14C356.56 180.81 356.97 180.59 358.63 179.67C360.29 178.75 363.24 175.29 361.41 172.23" stroke="black" stroke-miterlimit="10"/>
<path d="M337.78 195.2C337.78 195.2 337.44 199.97 340.65 200.9C343.86 201.83 340.13 203.88 341.14 205.21C342.15 206.54 343.16 205.45 345.12 207.06C347.08 208.67 346.89 211.75 345.79 213.16C344.69 214.57 346.33 216.1 344.9 217.42C343.47 218.74 341.82 223.05 341.82 223.05" stroke="black" stroke-miterlimit="10"/>
<path d="M393.18 180.88C393.18 180.88 388.65 185.24 386.59 183.95C384.53 182.66 384.59 178.85 384.91 178.94C385.23 179.03 383.54 176.46 382.62 177.23C381.7 178 381.14 179.93 378.9 179.28C376.66 178.63 375.93 176.33 374.13 178.94C372.33 181.55 372.55 184.39 370.99 184.98C369.43 185.57 368.6 186.03 368.74 184.33C368.88 182.63 368.99 179.88 367.93 179.92C366.87 179.96 364.85 182.16 365.12 183.63C365.39 185.1 368.05 185.52 367.22 185.98C366.39 186.44 363.13 186.88 362.49 186.7C361.85 186.52 357.58 188.06 359.86 189.76C362.14 191.46 362.97 193.44 361.36 192.98C359.75 192.52 355.02 195.66 354.13 199.93C353.24 204.19 351.28 202.58 351.96 203.82C352.64 205.06 359.56 208.8 363.55 208.22C367.54 207.64 364.32 211.57 365.46 213.64C366.6 215.71 367.05 218.97 365.94 220.39C364.83 221.81 364.07 229.24 365.91 230.12C367.75 231 368.07 228.66 370.64 229.4C373.21 230.14 376.38 227.59 377.12 225.02C377.86 222.45 378.56 218.83 381.27 217.88C383.98 216.93 387.47 216.89 387.89 214.23C388.31 211.57 384.83 211.6 384.1 209.31C383.37 207.02 383.71 202.24 384.54 201.79C385.37 201.34 385.77 203.54 385.49 204.5C385.21 205.46 385.24 208.95 386.53 209.32C387.82 209.69 392.99 212.23 394.34 206.37C395.69 200.5 398.42 207.9 397.73 209.09C397.04 210.28 397.26 213.13 397.81 213.63C398.36 214.13 396.97 216.52 397.62 216.7C398.27 216.88 399.98 212.17 400.8 211.71C401.62 211.25 402.41 211.13 402.41 211.13" stroke="black" stroke-miterlimit="10"/>
<path d="M381.82 223.25C381.82 223.25 377.78 225.21 378.59 227.18C379.4 229.15 381.93 228.84 382.81 227.01C383.69 225.18 381.81 223.24 381.81 223.24L381.82 223.25Z" stroke="black" stroke-miterlimit="10"/>
<path d="M367.89 192.1C367.89 192.1 365.51 190.72 366.43 189.94C367.35 189.16 372.86 189.37 372.71 191.06C372.56 192.75 373.25 194 375.91 194.42C378.57 194.84 381.14 195.59 381.41 197.05C381.68 198.51 379.83 202.5 378.92 200.85C378.01 199.2 379.02 198.1 377.42 197.63C375.82 197.16 375.17 196.98 373.25 196.42C371.33 195.86 371.74 195.63 370.73 194.3C369.72 192.97 367.89 192.09 367.89 192.09V192.1Z" stroke="black" stroke-miterlimit="10"/>
<path d="M374.98 184.41C374.98 184.41 378 185.98 378.69 184.79C379.38 183.6 377.83 181.76 377.83 181.76C377.83 181.76 376.39 185.52 374.98 184.41Z" stroke="black" stroke-miterlimit="10"/>
<path d="M407.12 136.13C406.66 137.17 407.03 138.73 407.56 139.54C408.46 140.91 411.21 139.1 411.21 139.1C411.21 139.1 411.31 138.92 411.42 138.64C411.78 137.73 412.24 135.74 409.63 135.21C408.2 134.92 407.45 135.39 407.12 136.13Z" stroke="black" stroke-miterlimit="10"/>
<path d="M407.12 136.13C403.02 136.13 403.24 134.49 400.05 132.65C396.86 130.81 394.58 130.34 389.79 130.55C384.99 130.75 381.81 128.91 374.96 127.52C368.11 126.13 360.99 137.73 360.99 137.73L359.36 145.72L355 149.58C355 149.58 354.74 156.65 357.93 158.49C361.12 160.33 361.58 158.05 361.58 158.05C361.14 154.4 358.86 153.93 358.86 153.93L366.87 149.63C366.87 149.63 364.33 156.24 366.14 158.99L372.98 160.39C372.98 160.39 375.5 159.72 374.59 158.34C373.69 156.97 371.41 156.5 371.41 156.5C371.41 156.5 371.2 151.7 372.57 150.8C372.57 150.8 376.9 152.87 381.69 152.66L379.82 161.79C379.82 161.79 385.06 165.24 388.71 164.8C392.36 164.36 388.5 160 387.13 160.91C387.13 160.91 386.46 158.39 388.06 156.35C389.67 154.3 391.51 151.12 391.51 151.12C390.58 155.68 396.92 165.3 396.92 165.3C396.92 165.3 401.25 167.37 403.76 166.7C406.01 166.1 401.95 163.95 401.95 163.95C401.95 163.95 400.13 161.2 399.46 158.69C398.79 156.18 398.81 150.24 400.18 149.33C401.1 148.73 402.543 149.423 404.51 151.41C407.46 154.39 411.12 153.95 413.63 153.28C416.14 152.6 414.09 151 413.19 149.62C412.29 148.25 413.89 146.2 414.12 145.06C414.35 143.92 411.46 138.68 411.46 138.68" stroke="black" stroke-miterlimit="10"/>
<path d="M472.454 311.902L225.371 273.431C221.841 272.881 218.533 275.298 217.983 278.829L201.74 383.152C201.19 386.682 203.607 389.99 207.137 390.54L454.22 429.011C457.751 429.561 461.059 427.144 461.609 423.614L477.852 319.291C478.402 315.76 475.985 312.452 472.454 311.902Z" fill="url(#paint2_linear_4_10)" stroke="black" stroke-miterlimit="10"/>
<path d="M369.632 390.708L262.562 374.037L259.784 391.882L366.854 408.553L369.632 390.708Z" stroke="black" stroke-miterlimit="10"/>
<path d="M233.572 369.529L211.26 366.056L208.482 383.901L230.793 387.374L233.572 369.529Z" stroke="black" stroke-miterlimit="10"/>
<path d="M240.512 324.918L218.201 321.444L215.422 339.289L237.734 342.763L240.512 324.918Z" stroke="black" stroke-miterlimit="10"/>
<path d="M250.421 349.307L214.731 343.75L211.952 361.595L247.642 367.152L250.421 349.307Z" stroke="black" stroke-miterlimit="10"/>
<path d="M259.212 373.518L236.901 370.044L234.123 387.889L256.434 391.363L259.212 373.518Z" stroke="black" stroke-miterlimit="10"/>
<path d="M395.284 394.71L372.973 391.236L370.194 409.081L392.505 412.555L395.284 394.71Z" stroke="black" stroke-miterlimit="10"/>
<path d="M416.472 398.002L398.627 395.224L395.848 413.069L413.693 415.847L416.472 398.002Z" stroke="black" stroke-miterlimit="10"/>
<path d="M437.672 401.304L419.827 398.526L417.048 416.371L434.893 419.149L437.672 401.304Z" stroke="black" stroke-miterlimit="10"/>
<path d="M458.862 404.605L441.017 401.827L438.238 419.672L456.083 422.45L458.862 404.605Z" stroke="black" stroke-miterlimit="10"/>
<path d="M271.61 352.605L253.765 349.826L250.986 367.671L268.831 370.45L271.61 352.605Z" stroke="black" stroke-miterlimit="10"/>
<path d="M292.8 355.907L274.955 353.128L272.176 370.973L290.021 373.752L292.8 355.907Z" stroke="black" stroke-miterlimit="10"/>
<path d="M313.99 359.208L296.145 356.429L293.366 374.274L311.211 377.053L313.99 359.208Z" stroke="black" stroke-miterlimit="10"/>
<path d="M335.18 362.508L317.335 359.73L314.556 377.575L332.401 380.353L335.18 362.508Z" stroke="black" stroke-miterlimit="10"/>
<path d="M356.371 365.799L338.526 363.021L335.748 380.866L353.593 383.644L356.371 365.799Z" stroke="black" stroke-miterlimit="10"/>
<path d="M262.819 328.39L244.974 325.612L242.196 343.457L260.041 346.235L262.819 328.39Z" stroke="black" stroke-miterlimit="10"/>
<path d="M284.011 331.681L266.166 328.903L263.387 346.748L281.232 349.526L284.011 331.681Z" stroke="black" stroke-miterlimit="10"/>
<path d="M305.201 334.982L287.356 332.204L284.577 350.049L302.422 352.827L305.201 334.982Z" stroke="black" stroke-miterlimit="10"/>
<path d="M326.381 338.283L308.536 335.504L305.757 353.349L323.602 356.128L326.381 338.283Z" stroke="black" stroke-miterlimit="10"/>
<path d="M347.571 341.584L329.726 338.805L326.947 356.65L344.792 359.429L347.571 341.584Z" stroke="black" stroke-miterlimit="10"/>
<path d="M368.762 344.884L350.917 342.106L348.139 359.951L365.984 362.729L368.762 344.884Z" stroke="black" stroke-miterlimit="10"/>
<path d="M389.962 348.187L372.117 345.408L369.339 363.253L387.184 366.032L389.962 348.187Z" stroke="black" stroke-miterlimit="10"/>
<path d="M411.152 351.488L393.307 348.709L390.529 366.554L408.374 369.333L411.152 351.488Z" stroke="black" stroke-miterlimit="10"/>
<path d="M432.342 354.788L414.497 352.01L411.719 369.855L429.564 372.633L432.342 354.788Z" stroke="black" stroke-miterlimit="10"/>
<path d="M239.689 300.8L221.844 298.022L219.066 315.867L236.911 318.645L239.689 300.8Z" stroke="black" stroke-miterlimit="10"/>
<path d="M260.889 304.103L243.044 301.324L240.266 319.169L258.111 321.948L260.889 304.103Z" stroke="black" stroke-miterlimit="10"/>
<path d="M282.081 307.394L264.236 304.615L261.457 322.46L279.302 325.239L282.081 307.394Z" stroke="black" stroke-miterlimit="10"/>
<path d="M303.271 310.694L285.426 307.916L282.647 325.761L300.492 328.539L303.271 310.694Z" stroke="black" stroke-miterlimit="10"/>
<path d="M324.461 313.995L306.616 311.217L303.837 329.062L321.682 331.84L324.461 313.995Z" stroke="black" stroke-miterlimit="10"/>
<path d="M431.523 330.669L413.678 327.891L410.899 345.736L428.744 348.514L431.523 330.669Z" stroke="black" stroke-miterlimit="10"/>
<path d="M452.713 333.97L434.868 331.192L432.089 349.037L449.934 351.815L452.713 333.97Z" stroke="black" stroke-miterlimit="10"/>
<path d="M469.45 336.576L456.061 334.491L453.283 352.336L466.672 354.421L469.45 336.576Z" stroke="black" stroke-miterlimit="10"/>
<path d="M345.651 317.296L327.806 314.517L325.027 332.362L342.872 335.141L345.651 317.296Z" stroke="black" stroke-miterlimit="10"/>
<path d="M366.832 320.587L348.987 317.808L346.209 335.653L364.054 338.432L366.832 320.587Z" stroke="black" stroke-miterlimit="10"/>
<path d="M388.022 323.888L370.177 321.109L367.399 338.954L385.244 341.732L388.022 323.888Z" stroke="black" stroke-miterlimit="10"/>
<path d="M409.222 327.2L391.377 324.421L388.599 342.266L406.444 345.045L409.222 327.2Z" stroke="black" stroke-miterlimit="10"/>
<path d="M242.385 283.514L224.54 280.735L222.717 292.444L240.562 295.222L242.385 283.514Z" stroke="black" stroke-miterlimit="10"/>
<path d="M263.575 286.814L245.73 284.036L243.907 295.745L261.752 298.523L263.575 286.814Z" stroke="black" stroke-miterlimit="10"/>
<path d="M284.767 290.105L266.922 287.327L265.099 299.036L282.944 301.814L284.767 290.105Z" stroke="black" stroke-miterlimit="10"/>
<path d="M305.967 293.407L288.122 290.629L286.299 302.338L304.144 305.116L305.967 293.407Z" stroke="black" stroke-miterlimit="10"/>
<path d="M327.147 296.708L309.302 293.93L307.479 305.639L325.324 308.417L327.147 296.708Z" stroke="black" stroke-miterlimit="10"/>
<path d="M434.219 313.382L416.374 310.604L414.551 322.313L432.396 325.091L434.219 313.382Z" stroke="black" stroke-miterlimit="10"/>
<path d="M455.409 316.683L437.564 313.905L435.741 325.614L453.586 328.392L455.409 316.683Z" stroke="black" stroke-miterlimit="10"/>
<path d="M471.03 319.115L459.874 317.378L458.051 329.087L469.207 330.824L471.03 319.115Z" stroke="black" stroke-miterlimit="10"/>
<path d="M348.337 300.009L330.492 297.23L328.669 308.939L346.514 311.718L348.337 300.009Z" stroke="black" stroke-miterlimit="10"/>
<path d="M369.528 303.3L351.683 300.521L349.86 312.23L367.705 315.009L369.528 303.3Z" stroke="black" stroke-miterlimit="10"/>
<path d="M390.718 306.611L372.873 303.832L371.05 315.541L388.895 318.32L390.718 306.611Z" stroke="black" stroke-miterlimit="10"/>
<path d="M411.909 309.911L394.064 307.133L392.24 318.842L410.085 321.62L411.909 309.911Z" stroke="black" stroke-miterlimit="10"/>
<path d="M465.809 359.998L435.692 355.309L432.914 373.153L463.031 377.843L465.809 359.998Z" stroke="black" stroke-miterlimit="10"/>
<path d="M377.561 369.1L359.716 366.322L356.938 384.167L374.783 386.945L377.561 369.1Z" stroke="black" stroke-miterlimit="10"/>
<path d="M419.954 375.703L380.914 369.624L378.136 387.469L417.175 393.548L419.954 375.703Z" stroke="black" stroke-miterlimit="10"/>
<path d="M441.143 378.994L423.298 376.215L420.519 394.06L438.364 396.839L441.143 378.994Z" stroke="black" stroke-miterlimit="10"/>
<path d="M462.333 382.295L444.488 379.516L441.709 397.361L459.554 400.14L462.333 382.295Z" stroke="black" stroke-miterlimit="10"/>
<path d="M218.99 430.67C213.84 434.62 207.2 431.94 204.95 426.48L257.54 250.46L272.95 228.64L271.58 254.65L218.99 430.66V430.67Z" fill="url(#paint3_linear_4_10)" stroke="black" stroke-miterlimit="10"/>
<path d="M257.54 250.47C262.83 249.35 267.49 250.8 271.58 254.66" stroke="black" stroke-miterlimit="10"/>
<path d="M210.2 408.94C213.84 413.4 218.62 414.49 224.24 413.13" stroke="black" stroke-miterlimit="10"/>
<path d="M208.36 415.07C212.15 419.86 216.89 421.04 222.4 419.26" stroke="black" stroke-miterlimit="10"/>
<path d="M268.06 235.58C269.18 237.25 270.67 237.68 272.52 236.9" stroke="black" stroke-miterlimit="10"/>
</g>
<defs>
<linearGradient id="paint0_linear_4_10" x1="14.2961" y1="148.211" x2="480.996" y2="396.411" gradientUnits="userSpaceOnUse">
<stop stop-color="#F7CE68"/>
<stop offset="0.78" stop-color="#FB6E38"/>
</linearGradient>
<linearGradient id="paint1_linear_4_10" x1="82.0167" y1="23.6388" x2="550.127" y2="277.499" gradientUnits="userSpaceOnUse">
<stop stop-color="#F7CE68"/>
<stop offset="0.78" stop-color="#FB6E38"/>
</linearGradient>
<linearGradient id="paint2_linear_4_10" x1="0.878128" y1="150.268" x2="473.238" y2="430.298" gradientUnits="userSpaceOnUse">
<stop stop-color="#F7CE68"/>
<stop offset="0.78" stop-color="#FB6E38"/>
</linearGradient>
<linearGradient id="paint3_linear_4_10" x1="-21.4" y1="200.36" x2="445.3" y2="430.88" gradientUnits="userSpaceOnUse">
<stop stop-color="#F7CE68"/>
<stop offset="0.78" stop-color="#FB6E38"/>
</linearGradient>
<clipPath id="clip0_4_10">
<rect width="445.45" height="355.05" fill="white" transform="translate(33 78)"/>
</clipPath>
</defs>
</svg>
